<?xml version="1.0" encoding="utf-8"?>
<!-- Generator: Adobe Illustrator 27.9.0, SVG Export Plug-In . SVG Version: 6.00 Build 0)  -->
<svg version="1.1" id="Layer_1" xmlns="http://www.w3.org/2000/svg" xmlns:xlink="http://www.w3.org/1999/xlink" x="0px" y="0px"
	 viewBox="0 0 2112.4 795.3" style="enable-background:new 0 0 2112.4 795.3;" xml:space="preserve">
<style type="text/css">
	.st0{fill:#E0A798;}
	.st1{fill:#FDCDB8;}
	.st2{fill:#F4C2AE;}
	.st3{fill:#FFD0BA;}
	.st4{fill:none;stroke:#000000;}
	.st5{font-family:'Helvetica';}
	.st6{font-size:12.6616px;}
	.st7{font-family:'Arial-BoldMT';}
	.st8{font-size:24px;}
	.st9{fill:#812930;}
	.st10{fill:#CC8C82;}
	.st11{fill:#AD6360;}
	.st12{fill:#E4AD9D;}
	.st13{fill:#F0BCAA;}
	.st14{font-size:18px;}
	.st15{fill:#63010F;}
	.st16{fill:#BC7770;}
	.st17{fill:#954446;}
	.st18{fill:#D89D90;}
	.st19{fill:#E9B3A2;}
	.st20{font-family:'ArialMT';}
	.st21{fill:#FECFB9;}
	.st22{fill:#FDCEB8;}
	.st23{fill:#FDCDB7;}
	.st24{fill:#FCCCB6;}
	.st25{fill:#FBCBB5;}
	.st26{fill:#FAC9B5;}
	.st27{fill:#F9C8B4;}
	.st28{fill:#F8C7B3;}
	.st29{fill:#F8C6B2;}
	.st30{fill:#F7C5B1;}
	.st31{fill:#F6C4B0;}
	.st32{fill:#F5C3AF;}
	.st33{fill:#F3C1AD;}
	.st34{fill:#F3C0AC;}
	.st35{fill:#F2BEAC;}
	.st36{fill:#F1BDAB;}
	.st37{fill:#EFBBA9;}
	.st38{fill:#EEBAA8;}
	.st39{fill:#EEB9A7;}
	.st40{fill:#EDB8A6;}
	.st41{fill:#ECB7A5;}
	.st42{fill:#EBB6A4;}
	.st43{fill:#EAB5A3;}
	.st44{fill:#EAB4A2;}
	.st45{fill:#E9B2A2;}
	.st46{fill:#E8B1A1;}
	.st47{fill:#E7B0A0;}
	.st48{fill:#E6AF9F;}
	.st49{fill:#E5AE9E;}
	.st50{fill:#E5AD9D;}
	.st51{fill:#E4AC9C;}
	.st52{fill:#E3AB9B;}
	.st53{fill:#E2AA9A;}
	.st54{fill:#E1A999;}
	.st55{fill:#E0A799;}
	.st56{fill:#E0A698;}
	.st57{fill:#DFA597;}
	.st58{fill:#DEA496;}
	.st59{fill:#DDA395;}
	.st60{fill:#DCA294;}
	.st61{fill:#DCA193;}
	.st62{fill:#DBA092;}
	.st63{fill:#DA9F91;}
	.st64{fill:#D99E90;}
	.st65{fill:#D89D8F;}
	.st66{fill:#D79B8F;}
	.st67{fill:#D79A8E;}
	.st68{fill:#D6998D;}
	.st69{fill:#D5988C;}
	.st70{fill:#D4978B;}
	.st71{fill:#D3968A;}
	.st72{fill:#D29589;}
	.st73{fill:#D29488;}
	.st74{fill:#D19387;}
	.st75{fill:#D09286;}
	.st76{fill:#CF9086;}
	.st77{fill:#CE8F85;}
	.st78{fill:#CD8E84;}
	.st79{fill:#CD8D83;}
	.st80{fill:#CB8B81;}
	.st81{fill:#CA8A80;}
	.st82{fill:#C9897F;}
	.st83{fill:#C9887E;}
	.st84{fill:#C8877D;}
	.st85{fill:#C7867C;}
	.st86{fill:#C6847C;}
	.st87{fill:#C5837B;}
	.st88{fill:#C4827A;}
	.st89{fill:#C48179;}
	.st90{fill:#C38078;}
	.st91{fill:#C27F77;}
	.st92{fill:#C17E76;}
	.st93{fill:#C07D75;}
	.st94{fill:#BF7C74;}
	.st95{fill:#BF7B73;}
	.st96{fill:#BE7973;}
	.st97{fill:#BD7872;}
	.st98{fill:#BC7771;}
	.st99{fill:#BB7670;}
	.st100{fill:#BA756F;}
	.st101{fill:#BA746E;}
	.st102{fill:#B9736D;}
	.st103{fill:#B8726C;}
	.st104{fill:#B7716B;}
	.st105{fill:#B6706A;}
	.st106{fill:#B66F69;}
	.st107{fill:#B56D69;}
	.st108{fill:#B46C68;}
	.st109{fill:#B36B67;}
	.st110{fill:#B26A66;}
	.st111{fill:#B16965;}
	.st112{fill:#B16864;}
	.st113{fill:#B06763;}
	.st114{fill:#AF6662;}
	.st115{fill:#AE6561;}
	.st116{fill:#AD6460;}
	.st117{fill:#AC6260;}
	.st118{fill:#AC615F;}
	.st119{fill:#AB605E;}
	.st120{fill:#AA5F5D;}
	.st121{fill:#A95E5C;}
	.st122{fill:#A85D5B;}
	.st123{fill:#A85C5A;}
	.st124{fill:#A75B59;}
	.st125{fill:#A65A58;}
	.st126{fill:#A55957;}
	.st127{fill:#A45856;}
	.st128{fill:#A35656;}
	.st129{fill:#A35555;}
	.st130{fill:#A25454;}
	.st131{fill:#A15353;}
	.st132{fill:#A05252;}
	.st133{fill:#9F5151;}
	.st134{fill:#9E5050;}
	.st135{fill:#9E4F4F;}
	.st136{fill:#9D4E4E;}
	.st137{fill:#9C4D4D;}
	.st138{fill:#9B4B4D;}
	.st139{fill:#9A4A4C;}
	.st140{fill:#99494B;}
	.st141{fill:#99484A;}
	.st142{fill:#984749;}
	.st143{fill:#974648;}
	.st144{fill:#964547;}
	.st145{fill:#954345;}
	.st146{fill:#944244;}
	.st147{fill:#934143;}
	.st148{fill:#923F43;}
	.st149{fill:#913E42;}
	.st150{fill:#903D41;}
	.st151{fill:#903C40;}
	.st152{fill:#8F3B3F;}
	.st153{fill:#8E3A3E;}
	.st154{fill:#8D393D;}
	.st155{fill:#8C383C;}
	.st156{fill:#8B373B;}
	.st157{fill:#8B363A;}
	.st158{fill:#8A343A;}
	.st159{fill:#893339;}
	.st160{fill:#883238;}
	.st161{fill:#873137;}
	.st162{fill:#863036;}
	.st163{fill:#862F35;}
	.st164{fill:#852E34;}
	.st165{fill:#842D33;}
	.st166{fill:#832C32;}
	.st167{fill:#822B31;}
	.st168{fill:#822A30;}
	.st169{fill:#812830;}
	.st170{fill:#80272F;}
	.st171{fill:#7F262E;}
	.st172{fill:#7E252D;}
	.st173{fill:#7D242C;}
	.st174{fill:#7D232B;}
	.st175{fill:#7C222A;}
	.st176{fill:#7B2129;}
	.st177{fill:#7A2028;}
	.st178{fill:#791F27;}
	.st179{fill:#781D27;}
	.st180{fill:#781C26;}
	.st181{fill:#771B25;}
	.st182{fill:#761A24;}
	.st183{fill:#751923;}
	.st184{fill:#741822;}
	.st185{fill:#741721;}
	.st186{fill:#731620;}
	.st187{fill:#72151F;}
	.st188{fill:#71141E;}
	.st189{fill:#70131D;}
	.st190{fill:#6F111D;}
	.st191{fill:#6F101C;}
	.st192{fill:#6E0F1B;}
	.st193{fill:#6D0E1A;}
	.st194{fill:#6C0D19;}
	.st195{fill:#6B0C18;}
	.st196{fill:#6A0B17;}
	.st197{fill:#6A0A16;}
	.st198{fill:#690915;}
	.st199{fill:#680814;}
	.st200{fill:#670614;}
	.st201{fill:#660513;}
	.st202{fill:#650412;}
	.st203{fill:#650311;}
	.st204{fill:#640210;}
	.st205{font-size:15.1939px;}
	.st206{font-family:'MyriadPro-Regular';}
	.st207{fill:none;}
</style>
<g>
	<rect id="_x32_020_-_Bronx" x="1382.5" y="575" class="st0" width="85.2" height="112.5"/>
	<rect id="_x32_020_-_Brooklyn" x="1469" y="629.2" class="st1" width="85.2" height="58.3"/>
	<rect id="_x32_020_-_Manhattan" x="1555.4" y="613.6" class="st2" width="85.2" height="73.9"/>
	<rect id="_x32_020_-_Queens" x="1641.9" y="650.7" class="st3" width="85.2" height="36.8"/>
	<rect id="_x32_020_-_Staten_Island" x="1728.4" y="656.9" class="st3" width="85.2" height="30.6"/>
</g>
<path class="st4" d="M1381.2,687.5h433.7"/>
<g transform="translate(34.64883551673945,0)">
	<line class="st4" x1="1390.4" y1="687.5" x2="1390.4" y2="695.1"/>
	<text transform="matrix(1 0 0 1 1373.8995 707.9169)" class="st5 st6">Bronx</text>
</g>
<g transform="translate(102.94941775836972,0)">
	<line class="st4" x1="1408.6" y1="687.5" x2="1408.6" y2="695.1"/>
	<text transform="matrix(1 0 0 1 1383.9846 707.9169)" class="st5 st6">Brooklyn</text>
</g>
<g transform="translate(171.25,0)">
	<line class="st4" x1="1426.8" y1="687.5" x2="1426.8" y2="695.1"/>
	<text transform="matrix(1 0 0 1 1396.8784 707.9169)" class="st5 st6">Manhattan</text>
</g>
<g transform="translate(239.55058224163025,0)">
	<line class="st4" x1="1445" y1="687.5" x2="1445" y2="695.1"/>
	<text transform="matrix(1 0 0 1 1422.8005 707.9169)" class="st5 st6">Queens</text>
</g>
<g transform="translate(307.8511644832605,0)">
	<line class="st4" x1="1463.2" y1="687.5" x2="1463.2" y2="695.1"/>
	<text transform="matrix(1 0 0 1 1426.1981 707.9169)" class="st5 st6">Staten Island</text>
</g>
<path class="st4" d="M1373.6,687.5h7.6V295h-7.6"/>
<text transform="matrix(1 0 0 1 1293.0446 277.3429)" class="st7 st8">2020</text>
<g>
	<rect id="_x32_019_-_Bronx" x="742.2" y="402.9" class="st9" width="85.2" height="291.2"/>
	<rect id="_x32_019_-_Brooklyn" x="828.7" y="543.6" class="st10" width="85.2" height="150.5"/>
	<rect id="_x32_019_-_Manhattan" x="915.1" y="486" class="st11" width="85.2" height="208.1"/>
	<rect id="_x32_019_-_Queens" x="1001.6" y="589.8" class="st12" width="85.2" height="104.3"/>
	<rect id="_x32_019_-_Staten_Island" x="1088.1" y="612.1" class="st13" width="85.2" height="82"/>
</g>
<path class="st4" d="M740.9,694.1h433.7"/>
<line class="st4" x1="784.8" y1="694.1" x2="784.8" y2="701.7"/>
<text transform="matrix(1 0 0 1 768.2534 714.497)" class="st5 st6">Bronx</text>
<line class="st4" x1="871.3" y1="694.1" x2="871.3" y2="701.7"/>
<text transform="matrix(1 0 0 1 846.6401 714.497)" class="st5 st6">Brooklyn</text>
<line class="st4" x1="957.8" y1="694.1" x2="957.8" y2="701.7"/>
<text transform="matrix(1 0 0 1 927.8325 714.497)" class="st5 st6">Manhattan</text>
<line class="st4" x1="1044.2" y1="694.1" x2="1044.2" y2="701.7"/>
<text transform="matrix(1 0 0 1 1022.0562 714.497)" class="st5 st6">Queens</text>
<line class="st4" x1="1130.7" y1="694.1" x2="1130.7" y2="701.7"/>
<text transform="matrix(1 0 0 1 1093.7534 714.497)" class="st5 st6">Staten Island</text>
<path class="st4" d="M733.3,694.1h7.6V301.6h-7.6"/>
<line class="st4" x1="740.9" y1="694.1" x2="733.3" y2="694.1"/>
<text transform="matrix(1 0 0 1 713.3132 700.6934)" class="st5 st14">0</text>
<line class="st4" x1="740.9" y1="638" x2="733.3" y2="638"/>
<text transform="matrix(1 0 0 1 706.2712 644.6212)" class="st5 st14">50</text>
<line class="st4" x1="740.9" y1="582" x2="733.3" y2="582"/>
<text transform="matrix(1 0 0 1 699.2302 588.5489)" class="st5 st14">100</text>
<line class="st4" x1="740.9" y1="525.9" x2="733.3" y2="525.9"/>
<text transform="matrix(1 0 0 1 699.2302 532.4756)" class="st5 st14">150</text>
<line class="st4" x1="740.9" y1="469.8" x2="733.3" y2="469.8"/>
<text transform="matrix(1 0 0 1 699.2302 476.4024)" class="st5 st14">200</text>
<line class="st4" x1="740.9" y1="413.7" x2="733.3" y2="413.7"/>
<text transform="matrix(1 0 0 1 699.2302 420.3301)" class="st5 st14">250</text>
<line class="st4" x1="740.9" y1="357.7" x2="733.3" y2="357.7"/>
<text transform="matrix(1 0 0 1 699.2302 364.2574)" class="st5 st14">300</text>
<line class="st4" x1="740.9" y1="301.6" x2="733.3" y2="301.6"/>
<text transform="matrix(1 0 0 1 699.2302 308.1841)" class="st5 st14">350</text>
<text transform="matrix(1 0 0 1 653.9883 277.6545)" class="st7 st8">2019</text>
<g>
	<rect id="_x32_018_-_Bronx" x="157.4" y="353.4" class="st15" width="85.2" height="347.3"/>
	<rect id="_x32_018_-_Brooklyn" x="243.9" y="519.9" class="st16" width="85.2" height="180.8"/>
	<rect id="_x32_018_-_Manhattan" x="330.4" y="448.3" class="st17" width="85.2" height="252.4"/>
	<rect id="_x32_018_-_Queens" x="416.8" y="573.7" class="st18" width="85.2" height="126.9"/>
	<rect id="_x32_018_-_Staten_Island" x="503.3" y="605.5" class="st19" width="85.2" height="95.2"/>
</g>
<path class="st4" d="M156.1,700.7h433.7"/>
<g transform="translate(34.64883551673945,0)">
	<line class="st4" x1="165.4" y1="700.7" x2="165.4" y2="708.3"/>
	<text transform="matrix(1 0 0 1 148.8282 721.079)" class="st5 st6">Bronx</text>
</g>
<g transform="translate(102.94941775836972,0)">
	<line class="st4" x1="183.5" y1="700.7" x2="183.5" y2="708.3"/>
	<text transform="matrix(1 0 0 1 158.9148 721.079)" class="st5 st6">Brooklyn</text>
</g>
<g transform="translate(171.25,0)">
	<line class="st4" x1="201.7" y1="700.7" x2="201.7" y2="708.3"/>
	<text transform="matrix(1 0 0 1 171.8076 721.079)" class="st5 st6">Manhattan</text>
</g>
<g transform="translate(239.55058224163025,0)">
	<line class="st4" x1="219.9" y1="700.7" x2="219.9" y2="708.3"/>
	<text transform="matrix(1 0 0 1 197.7297 721.079)" class="st5 st6">Queens</text>
</g>
<g transform="translate(307.8511644832605,0)">
	<line class="st4" x1="238.1" y1="700.7" x2="238.1" y2="708.3"/>
	<text transform="matrix(1 0 0 1 201.1269 721.079)" class="st5 st6">Staten Island</text>
</g>
<path class="st4" d="M148.5,700.7h7.6V308.2h-7.6"/>
<text transform="matrix(1 0 0 1 79.7305 277.6542)" class="st7 st8">2018</text>
<g transform="translate(0,31.100000381469727)">
	<g transform="translate(0,0)">
		<rect x="29.1" y="160.8" class="st3" width="1.3" height="12.7"/>
		<text transform="matrix(1 0 0 1 29.0839 189.9054)" class="st20 st6">48.3</text>
	</g>
	<g transform="translate(1,0)">
		<rect x="29.4" y="160.8" class="st21" width="1.3" height="12.7"/>
	</g>
	<g transform="translate(2,0)">
		<rect x="29.6" y="160.8" class="st22" width="1.3" height="12.7"/>
	</g>
	<g transform="translate(3,0)">
		<rect x="29.9" y="160.8" class="st23" width="1.3" height="12.7"/>
	</g>
	<g transform="translate(4,0)">
		<rect x="30.1" y="160.8" class="st24" width="1.3" height="12.7"/>
	</g>
	<g transform="translate(5,0)">
		<rect x="30.4" y="160.8" class="st25" width="1.3" height="12.7"/>
	</g>
	<g transform="translate(6,0)">
		<rect x="30.7" y="160.8" class="st26" width="1.3" height="12.7"/>
	</g>
	<g transform="translate(7,0)">
		<rect x="30.9" y="160.8" class="st27" width="1.3" height="12.7"/>
	</g>
	<g transform="translate(8,0)">
		<rect x="31.2" y="160.8" class="st28" width="1.3" height="12.7"/>
	</g>
	<g transform="translate(9,0)">
		<rect x="31.5" y="160.8" class="st29" width="1.3" height="12.7"/>
	</g>
	<g transform="translate(10,0)">
		<rect x="31.7" y="160.8" class="st30" width="1.3" height="12.7"/>
	</g>
	<g transform="translate(11,0)">
		<rect x="32" y="160.8" class="st31" width="1.3" height="12.7"/>
	</g>
	<g transform="translate(12,0)">
		<rect x="32.3" y="160.8" class="st32" width="1.3" height="12.7"/>
	</g>
	<g transform="translate(13,0)">
		<rect x="32.5" y="160.8" class="st2" width="1.3" height="12.7"/>
	</g>
	<g transform="translate(14,0)">
		<rect x="32.8" y="160.8" class="st33" width="1.3" height="12.7"/>
	</g>
	<g transform="translate(15,0)">
		<rect x="33.1" y="160.8" class="st34" width="1.3" height="12.7"/>
	</g>
	<g transform="translate(16,0)">
		<rect x="33.3" y="160.8" class="st35" width="1.3" height="12.7"/>
	</g>
	<g transform="translate(17,0)">
		<rect x="33.6" y="160.8" class="st36" width="1.3" height="12.7"/>
	</g>
	<g transform="translate(18,0)">
		<rect x="33.9" y="160.8" class="st13" width="1.3" height="12.7"/>
	</g>
	<g transform="translate(19,0)">
		<rect x="34.1" y="160.8" class="st37" width="1.3" height="12.7"/>
	</g>
	<g transform="translate(20,0)">
		<rect x="34.4" y="160.8" class="st38" width="1.3" height="12.7"/>
	</g>
	<g transform="translate(21,0)">
		<rect x="34.7" y="160.8" class="st39" width="1.3" height="12.7"/>
	</g>
	<g transform="translate(22,0)">
		<rect x="34.9" y="160.8" class="st40" width="1.3" height="12.7"/>
	</g>
	<g transform="translate(23,0)">
		<rect x="35.2" y="160.8" class="st41" width="1.3" height="12.7"/>
	</g>
	<g transform="translate(24,0)">
		<rect x="35.5" y="160.8" class="st42" width="1.3" height="12.7"/>
	</g>
	<g transform="translate(25,0)">
		<rect x="35.7" y="160.8" class="st43" width="1.3" height="12.7"/>
	</g>
	<g transform="translate(26,0)">
		<rect x="36" y="160.8" class="st44" width="1.3" height="12.7"/>
	</g>
	<g transform="translate(27,0)">
		<rect x="36.3" y="160.8" class="st45" width="1.3" height="12.7"/>
	</g>
	<g transform="translate(28,0)">
		<rect x="36.5" y="160.8" class="st46" width="1.3" height="12.7"/>
	</g>
	<g transform="translate(29,0)">
		<rect x="36.8" y="160.8" class="st47" width="1.3" height="12.7"/>
	</g>
	<g transform="translate(30,0)">
		<rect x="37.1" y="160.8" class="st48" width="1.3" height="12.7"/>
	</g>
	<g transform="translate(31,0)">
		<rect x="37.3" y="160.8" class="st49" width="1.3" height="12.7"/>
	</g>
	<g transform="translate(32,0)">
		<rect x="37.6" y="160.8" class="st50" width="1.3" height="12.7"/>
	</g>
	<g transform="translate(33,0)">
		<rect x="37.9" y="160.8" class="st51" width="1.3" height="12.7"/>
	</g>
	<g transform="translate(34,0)">
		<rect x="38.1" y="160.8" class="st52" width="1.3" height="12.7"/>
	</g>
	<g transform="translate(35,0)">
		<rect x="38.4" y="160.8" class="st53" width="1.3" height="12.7"/>
	</g>
	<g transform="translate(36,0)">
		<rect x="38.7" y="160.8" class="st54" width="1.3" height="12.7"/>
	</g>
	<g transform="translate(37,0)">
		<rect x="38.9" y="160.8" class="st55" width="1.3" height="12.7"/>
	</g>
	<g transform="translate(38,0)">
		<rect x="39.2" y="160.8" class="st56" width="1.3" height="12.7"/>
	</g>
	<g transform="translate(39,0)">
		<rect x="39.5" y="160.8" class="st57" width="1.3" height="12.7"/>
	</g>
	<g transform="translate(40,0)">
		<rect x="39.7" y="160.8" class="st58" width="1.3" height="12.7"/>
	</g>
	<g transform="translate(41,0)">
		<rect x="40" y="160.8" class="st59" width="1.3" height="12.7"/>
	</g>
	<g transform="translate(42,0)">
		<rect x="40.3" y="160.8" class="st60" width="1.3" height="12.7"/>
	</g>
	<g transform="translate(43,0)">
		<rect x="40.5" y="160.8" class="st61" width="1.3" height="12.7"/>
	</g>
	<g transform="translate(44,0)">
		<rect x="40.8" y="160.8" class="st62" width="1.3" height="12.7"/>
	</g>
	<g transform="translate(45,0)">
		<rect x="41.1" y="160.8" class="st63" width="1.3" height="12.7"/>
	</g>
	<g transform="translate(46,0)">
		<rect x="41.3" y="160.8" class="st64" width="1.3" height="12.7"/>
	</g>
	<g transform="translate(47,0)">
		<rect x="41.6" y="160.8" class="st65" width="1.3" height="12.7"/>
	</g>
	<g transform="translate(48,0)">
		<rect x="41.9" y="160.8" class="st66" width="1.3" height="12.7"/>
	</g>
	<g transform="translate(49,0)">
		<rect x="42.1" y="160.8" class="st67" width="1.3" height="12.7"/>
	</g>
	<g transform="translate(50,0)">
		<rect x="42.4" y="160.8" class="st68" width="1.3" height="12.7"/>
	</g>
	<g transform="translate(51,0)">
		<rect x="42.7" y="160.8" class="st69" width="1.3" height="12.7"/>
	</g>
	<g transform="translate(52,0)">
		<rect x="42.9" y="160.8" class="st70" width="1.3" height="12.7"/>
	</g>
	<g transform="translate(53,0)">
		<rect x="43.2" y="160.8" class="st71" width="1.3" height="12.7"/>
	</g>
	<g transform="translate(54,0)">
		<rect x="43.5" y="160.8" class="st72" width="1.3" height="12.7"/>
	</g>
	<g transform="translate(55,0)">
		<rect x="43.7" y="160.8" class="st73" width="1.3" height="12.7"/>
	</g>
	<g transform="translate(56,0)">
		<rect x="44" y="160.8" class="st74" width="1.3" height="12.7"/>
	</g>
	<g transform="translate(57,0)">
		<rect x="44.3" y="160.8" class="st75" width="1.3" height="12.7"/>
	</g>
	<g transform="translate(58,0)">
		<rect x="44.5" y="160.8" class="st76" width="1.3" height="12.7"/>
	</g>
	<g transform="translate(59,0)">
		<rect x="44.8" y="160.8" class="st77" width="1.3" height="12.7"/>
	</g>
	<g transform="translate(60,0)">
		<rect x="45.1" y="160.8" class="st78" width="1.3" height="12.7"/>
	</g>
	<g transform="translate(61,0)">
		<rect x="45.3" y="160.8" class="st79" width="1.3" height="12.7"/>
	</g>
	<g transform="translate(62,0)">
		<rect x="45.6" y="160.8" class="st10" width="1.3" height="12.7"/>
	</g>
	<g transform="translate(63,0)">
		<rect x="45.9" y="160.8" class="st80" width="1.3" height="12.7"/>
	</g>
	<g transform="translate(64,0)">
		<rect x="46.1" y="160.8" class="st81" width="1.3" height="12.7"/>
	</g>
	<g transform="translate(65,0)">
		<rect x="46.4" y="160.8" class="st82" width="1.3" height="12.7"/>
	</g>
	<g transform="translate(66,0)">
		<rect x="46.7" y="160.8" class="st83" width="1.3" height="12.7"/>
	</g>
	<g transform="translate(67,0)">
		<rect x="46.9" y="160.8" class="st84" width="1.3" height="12.7"/>
	</g>
	<g transform="translate(68,0)">
		<rect x="47.2" y="160.8" class="st85" width="1.3" height="12.7"/>
	</g>
	<g transform="translate(69,0)">
		<rect x="47.4" y="160.8" class="st86" width="1.3" height="12.7"/>
	</g>
	<g transform="translate(70,0)">
		<rect x="47.7" y="160.8" class="st87" width="1.3" height="12.7"/>
	</g>
	<g transform="translate(71,0)">
		<rect x="48" y="160.8" class="st88" width="1.3" height="12.7"/>
	</g>
	<g transform="translate(72,0)">
		<rect x="48.2" y="160.8" class="st89" width="1.3" height="12.7"/>
	</g>
	<g transform="translate(73,0)">
		<rect x="48.5" y="160.8" class="st90" width="1.3" height="12.7"/>
	</g>
	<g transform="translate(74,0)">
		<rect x="48.8" y="160.8" class="st91" width="1.3" height="12.7"/>
	</g>
	<g transform="translate(75,0)">
		<rect x="49" y="160.8" class="st92" width="1.3" height="12.7"/>
	</g>
	<g transform="translate(76,0)">
		<rect x="49.3" y="160.8" class="st93" width="1.3" height="12.7"/>
	</g>
	<g transform="translate(77,0)">
		<rect x="49.6" y="160.8" class="st94" width="1.3" height="12.7"/>
	</g>
	<g transform="translate(78,0)">
		<rect x="49.8" y="160.8" class="st95" width="1.3" height="12.7"/>
	</g>
	<g transform="translate(79,0)">
		<rect x="50.1" y="160.8" class="st96" width="1.3" height="12.7"/>
	</g>
	<g transform="translate(80,0)">
		<rect x="50.4" y="160.8" class="st97" width="1.3" height="12.7"/>
	</g>
	<g transform="translate(81,0)">
		<rect x="50.6" y="160.8" class="st98" width="1.3" height="12.7"/>
	</g>
	<g transform="translate(82,0)">
		<rect x="50.9" y="160.8" class="st99" width="1.3" height="12.7"/>
	</g>
	<g transform="translate(83,0)">
		<rect x="51.2" y="160.8" class="st100" width="1.3" height="12.7"/>
	</g>
	<g transform="translate(84,0)">
		<rect x="51.4" y="160.8" class="st101" width="1.3" height="12.7"/>
	</g>
	<g transform="translate(85,0)">
		<rect x="51.7" y="160.8" class="st102" width="1.3" height="12.7"/>
	</g>
	<g transform="translate(86,0)">
		<rect x="52" y="160.8" class="st103" width="1.3" height="12.7"/>
	</g>
	<g transform="translate(87,0)">
		<rect x="52.2" y="160.8" class="st104" width="1.3" height="12.7"/>
	</g>
	<g transform="translate(88,0)">
		<rect x="52.5" y="160.8" class="st105" width="1.3" height="12.7"/>
	</g>
	<g transform="translate(89,0)">
		<rect x="52.8" y="160.8" class="st106" width="1.3" height="12.7"/>
	</g>
	<g transform="translate(90,0)">
		<rect x="53" y="160.8" class="st107" width="1.3" height="12.7"/>
	</g>
	<g transform="translate(91,0)">
		<rect x="53.3" y="160.8" class="st108" width="1.3" height="12.7"/>
	</g>
	<g transform="translate(92,0)">
		<rect x="53.6" y="160.8" class="st109" width="1.3" height="12.7"/>
	</g>
	<g transform="translate(93,0)">
		<rect x="53.8" y="160.8" class="st110" width="1.3" height="12.7"/>
	</g>
	<g transform="translate(94,0)">
		<rect x="54.1" y="160.8" class="st111" width="1.3" height="12.7"/>
	</g>
	<g transform="translate(95,0)">
		<rect x="54.4" y="160.8" class="st112" width="1.3" height="12.7"/>
	</g>
	<g transform="translate(96,0)">
		<rect x="54.6" y="160.8" class="st113" width="1.3" height="12.7"/>
	</g>
	<g transform="translate(97,0)">
		<rect x="54.9" y="160.8" class="st114" width="1.3" height="12.7"/>
	</g>
	<g transform="translate(98,0)">
		<rect x="55.2" y="160.8" class="st115" width="1.3" height="12.7"/>
	</g>
	<g transform="translate(99,0)">
		<rect x="55.4" y="160.8" class="st116" width="1.3" height="12.7"/>
	</g>
	<g transform="translate(100,0)">
		<rect x="55.7" y="160.8" class="st117" width="1.3" height="12.7"/>
	</g>
	<g transform="translate(101,0)">
		<rect x="56" y="160.8" class="st118" width="1.3" height="12.7"/>
	</g>
	<g transform="translate(102,0)">
		<rect x="56.2" y="160.8" class="st119" width="1.3" height="12.7"/>
	</g>
	<g transform="translate(103,0)">
		<rect x="56.5" y="160.8" class="st120" width="1.3" height="12.7"/>
	</g>
	<g transform="translate(104,0)">
		<rect x="56.8" y="160.8" class="st121" width="1.3" height="12.7"/>
	</g>
	<g transform="translate(105,0)">
		<rect x="57" y="160.8" class="st122" width="1.3" height="12.7"/>
	</g>
	<g transform="translate(106,0)">
		<rect x="57.3" y="160.8" class="st123" width="1.3" height="12.7"/>
	</g>
	<g transform="translate(107,0)">
		<rect x="57.6" y="160.8" class="st124" width="1.3" height="12.7"/>
	</g>
	<g transform="translate(108,0)">
		<rect x="57.8" y="160.8" class="st125" width="1.3" height="12.7"/>
	</g>
	<g transform="translate(109,0)">
		<rect x="58.1" y="160.8" class="st126" width="1.3" height="12.7"/>
	</g>
	<g transform="translate(110,0)">
		<rect x="58.4" y="160.8" class="st127" width="1.3" height="12.7"/>
	</g>
	<g transform="translate(111,0)">
		<rect x="58.6" y="160.8" class="st128" width="1.3" height="12.7"/>
	</g>
	<g transform="translate(112,0)">
		<rect x="58.9" y="160.8" class="st129" width="1.3" height="12.7"/>
	</g>
	<g transform="translate(113,0)">
		<rect x="59.2" y="160.8" class="st130" width="1.3" height="12.7"/>
	</g>
	<g transform="translate(114,0)">
		<rect x="59.4" y="160.8" class="st131" width="1.3" height="12.7"/>
	</g>
	<g transform="translate(115,0)">
		<rect x="59.7" y="160.8" class="st132" width="1.3" height="12.7"/>
	</g>
	<g transform="translate(116,0)">
		<rect x="60" y="160.8" class="st133" width="1.3" height="12.7"/>
	</g>
	<g transform="translate(117,0)">
		<rect x="60.2" y="160.8" class="st134" width="1.3" height="12.7"/>
	</g>
	<g transform="translate(118,0)">
		<rect x="60.5" y="160.8" class="st135" width="1.3" height="12.7"/>
	</g>
	<g transform="translate(119,0)">
		<rect x="60.8" y="160.8" class="st136" width="1.3" height="12.7"/>
	</g>
	<g transform="translate(120,0)">
		<rect x="61" y="160.8" class="st137" width="1.3" height="12.7"/>
	</g>
	<g transform="translate(121,0)">
		<rect x="61.3" y="160.8" class="st138" width="1.3" height="12.7"/>
	</g>
	<g transform="translate(122,0)">
		<rect x="61.6" y="160.8" class="st139" width="1.3" height="12.7"/>
	</g>
	<g transform="translate(123,0)">
		<rect x="61.8" y="160.8" class="st140" width="1.3" height="12.7"/>
	</g>
	<g transform="translate(124,0)">
		<rect x="62.1" y="160.8" class="st141" width="1.3" height="12.7"/>
	</g>
	<g transform="translate(125,0)">
		<rect x="62.4" y="160.8" class="st142" width="1.3" height="12.7"/>
	</g>
	<g transform="translate(126,0)">
		<rect x="62.6" y="160.8" class="st143" width="1.3" height="12.7"/>
	</g>
	<g transform="translate(127,0)">
		<rect x="62.9" y="160.8" class="st144" width="1.3" height="12.7"/>
	</g>
	<g transform="translate(128,0)">
		<rect x="63.2" y="160.8" class="st17" width="1.3" height="12.7"/>
	</g>
	<g transform="translate(129,0)">
		<rect x="63.4" y="160.8" class="st145" width="1.3" height="12.7"/>
	</g>
	<g transform="translate(130,0)">
		<rect x="63.7" y="160.8" class="st146" width="1.3" height="12.7"/>
	</g>
	<g transform="translate(131,0)">
		<rect x="64" y="160.8" class="st147" width="1.3" height="12.7"/>
	</g>
	<g transform="translate(132,0)">
		<rect x="64.2" y="160.8" class="st148" width="1.3" height="12.7"/>
	</g>
	<g transform="translate(133,0)">
		<rect x="64.5" y="160.8" class="st149" width="1.3" height="12.7"/>
	</g>
	<g transform="translate(134,0)">
		<rect x="64.7" y="160.8" class="st150" width="1.3" height="12.7"/>
	</g>
	<g transform="translate(135,0)">
		<rect x="65" y="160.8" class="st151" width="1.3" height="12.7"/>
	</g>
	<g transform="translate(136,0)">
		<rect x="65.3" y="160.8" class="st152" width="1.3" height="12.7"/>
	</g>
	<g transform="translate(137,0)">
		<rect x="65.5" y="160.8" class="st153" width="1.3" height="12.7"/>
	</g>
	<g transform="translate(138,0)">
		<rect x="65.8" y="160.8" class="st154" width="1.3" height="12.7"/>
	</g>
	<g transform="translate(139,0)">
		<rect x="66.1" y="160.8" class="st155" width="1.3" height="12.7"/>
	</g>
	<g transform="translate(140,0)">
		<rect x="66.3" y="160.8" class="st156" width="1.3" height="12.7"/>
	</g>
	<g transform="translate(141,0)">
		<rect x="66.6" y="160.8" class="st157" width="1.3" height="12.7"/>
	</g>
	<g transform="translate(142,0)">
		<rect x="66.9" y="160.8" class="st158" width="1.3" height="12.7"/>
	</g>
	<g transform="translate(143,0)">
		<rect x="67.1" y="160.8" class="st159" width="1.3" height="12.7"/>
	</g>
	<g transform="translate(144,0)">
		<rect x="67.4" y="160.8" class="st160" width="1.3" height="12.7"/>
	</g>
	<g transform="translate(145,0)">
		<rect x="67.7" y="160.8" class="st161" width="1.3" height="12.7"/>
	</g>
	<g transform="translate(146,0)">
		<rect x="67.9" y="160.8" class="st162" width="1.3" height="12.7"/>
	</g>
	<g transform="translate(147,0)">
		<rect x="68.2" y="160.8" class="st163" width="1.3" height="12.7"/>
	</g>
	<g transform="translate(148,0)">
		<rect x="68.5" y="160.8" class="st164" width="1.3" height="12.7"/>
	</g>
	<g transform="translate(149,0)">
		<rect x="68.7" y="160.8" class="st165" width="1.3" height="12.7"/>
	</g>
	<g transform="translate(150,0)">
		<rect x="69" y="160.8" class="st166" width="1.3" height="12.7"/>
	</g>
	<g transform="translate(151,0)">
		<rect x="69.3" y="160.8" class="st167" width="1.3" height="12.7"/>
	</g>
	<g transform="translate(152,0)">
		<rect x="69.5" y="160.8" class="st168" width="1.3" height="12.7"/>
	</g>
	<g transform="translate(153,0)">
		<rect x="69.8" y="160.8" class="st169" width="1.3" height="12.7"/>
	</g>
	<g transform="translate(154,0)">
		<rect x="70.1" y="160.8" class="st170" width="1.3" height="12.7"/>
	</g>
	<g transform="translate(155,0)">
		<rect x="70.3" y="160.8" class="st171" width="1.3" height="12.7"/>
	</g>
	<g transform="translate(156,0)">
		<rect x="70.6" y="160.8" class="st172" width="1.3" height="12.7"/>
	</g>
	<g transform="translate(157,0)">
		<rect x="70.9" y="160.8" class="st173" width="1.3" height="12.7"/>
	</g>
	<g transform="translate(158,0)">
		<rect x="71.1" y="160.8" class="st174" width="1.3" height="12.7"/>
	</g>
	<g transform="translate(159,0)">
		<rect x="71.4" y="160.8" class="st175" width="1.3" height="12.7"/>
	</g>
	<g transform="translate(160,0)">
		<rect x="71.7" y="160.8" class="st176" width="1.3" height="12.7"/>
	</g>
	<g transform="translate(161,0)">
		<rect x="71.9" y="160.8" class="st177" width="1.3" height="12.7"/>
	</g>
	<g transform="translate(162,0)">
		<rect x="72.2" y="160.8" class="st178" width="1.3" height="12.7"/>
	</g>
	<g transform="translate(163,0)">
		<rect x="72.5" y="160.8" class="st179" width="1.3" height="12.7"/>
	</g>
	<g transform="translate(164,0)">
		<rect x="72.7" y="160.8" class="st180" width="1.3" height="12.7"/>
	</g>
	<g transform="translate(165,0)">
		<rect x="73" y="160.8" class="st181" width="1.3" height="12.7"/>
	</g>
	<g transform="translate(166,0)">
		<rect x="73.3" y="160.8" class="st182" width="1.3" height="12.7"/>
	</g>
	<g transform="translate(167,0)">
		<rect x="73.5" y="160.8" class="st183" width="1.3" height="12.7"/>
	</g>
	<g transform="translate(168,0)">
		<rect x="73.8" y="160.8" class="st184" width="1.3" height="12.7"/>
	</g>
	<g transform="translate(169,0)">
		<rect x="74.1" y="160.8" class="st185" width="1.3" height="12.7"/>
	</g>
	<g transform="translate(170,0)">
		<rect x="74.3" y="160.8" class="st186" width="1.3" height="12.7"/>
	</g>
	<g transform="translate(171,0)">
		<rect x="74.6" y="160.8" class="st187" width="1.3" height="12.7"/>
	</g>
	<g transform="translate(172,0)">
		<rect x="74.9" y="160.8" class="st188" width="1.3" height="12.7"/>
	</g>
	<g transform="translate(173,0)">
		<rect x="75.1" y="160.8" class="st189" width="1.3" height="12.7"/>
	</g>
	<g transform="translate(174,0)">
		<rect x="75.4" y="160.8" class="st190" width="1.3" height="12.7"/>
	</g>
	<g transform="translate(175,0)">
		<rect x="75.7" y="160.8" class="st191" width="1.3" height="12.7"/>
	</g>
	<g transform="translate(176,0)">
		<rect x="75.9" y="160.8" class="st192" width="1.3" height="12.7"/>
	</g>
	<g transform="translate(177,0)">
		<rect x="76.2" y="160.8" class="st193" width="1.3" height="12.7"/>
	</g>
	<g transform="translate(178,0)">
		<rect x="76.5" y="160.8" class="st194" width="1.3" height="12.7"/>
	</g>
	<g transform="translate(179,0)">
		<rect x="76.7" y="160.8" class="st195" width="1.3" height="12.7"/>
	</g>
	<g transform="translate(180,0)">
		<rect x="77" y="160.8" class="st196" width="1.3" height="12.7"/>
	</g>
	<g transform="translate(181,0)">
		<rect x="77.3" y="160.8" class="st197" width="1.3" height="12.7"/>
	</g>
	<g transform="translate(182,0)">
		<rect x="77.5" y="160.8" class="st198" width="1.3" height="12.7"/>
	</g>
	<g transform="translate(183,0)">
		<rect x="77.8" y="160.8" class="st199" width="1.3" height="12.7"/>
	</g>
	<g transform="translate(184,0)">
		<rect x="78.1" y="160.8" class="st200" width="1.3" height="12.7"/>
	</g>
	<g transform="translate(185,0)">
		<rect x="78.3" y="160.8" class="st201" width="1.3" height="12.7"/>
	</g>
	<g transform="translate(186,0)">
		<rect x="78.6" y="160.8" class="st202" width="1.3" height="12.7"/>
	</g>
	<g transform="translate(187,0)">
		<rect x="78.9" y="160.8" class="st203" width="1.3" height="12.7"/>
	</g>
	<g transform="translate(188,0)">
		<rect x="79.1" y="160.8" class="st204" width="1.3" height="12.7"/>
	</g>
	<g transform="translate(189,0)">
		<rect x="79.4" y="160.8" class="st15" width="1.3" height="12.7"/>
		<text transform="matrix(1 0 0 1 47.7031 189.9054)" class="st20 st6">309.7</text>
	</g>
</g>
<text transform="matrix(1 0 0 1 29.0839 152.5059)" class="st7 st205">Estimated annual rate per</text>
<text transform="matrix(1 0 0 1 29.0839 170.7388)" class="st7 st205">10,000</text>
<text transform="matrix(6.123234e-17 -1 1 6.123234e-17 51.4393 672.2244)" class="st206 st14">Estimated annual rate of asthma hospitalizations</text>
<text transform="matrix(1 0 0 1 320.3013 772.4246)" class="st206 st14">Borough</text>
<rect x="35.5" y="38.6" class="st207" width="1248.8" height="78.2"/>
<text transform="matrix(1 0 0 1 35.5201 55.6824)"><tspan x="0" y="0" class="st206 st8">Although hospitalizations decrease overall from 2018-2020, the Bronx maintains a relatively higher rate of hospitalizations </tspan><tspan x="0" y="28.8" class="st206 st8">due to asthma compared to other New York City boroughs.</tspan></text>
<path class="st4" d="M147.8,700.7h7.6V308.2h-7.6"/>
<line class="st4" x1="155.4" y1="700.7" x2="147.8" y2="700.7"/>
<text transform="matrix(1 0 0 1 127.746 707.2744)" class="st5 st14">0</text>
<line class="st4" x1="155.4" y1="644.6" x2="147.8" y2="644.6"/>
<text transform="matrix(1 0 0 1 120.704 651.2021)" class="st5 st14">50</text>
<line class="st4" x1="155.4" y1="588.5" x2="147.8" y2="588.5"/>
<text transform="matrix(1 0 0 1 113.663 595.1299)" class="st5 st14">100</text>
<line class="st4" x1="155.4" y1="532.5" x2="147.8" y2="532.5"/>
<text transform="matrix(1 0 0 1 113.663 539.0566)" class="st5 st14">150</text>
<line class="st4" x1="155.4" y1="476.4" x2="147.8" y2="476.4"/>
<text transform="matrix(1 0 0 1 113.663 482.9834)" class="st5 st14">200</text>
<line class="st4" x1="155.4" y1="420.3" x2="147.8" y2="420.3"/>
<text transform="matrix(1 0 0 1 113.663 426.9112)" class="st5 st14">250</text>
<line class="st4" x1="155.4" y1="364.3" x2="147.8" y2="364.3"/>
<text transform="matrix(1 0 0 1 113.663 370.8384)" class="st5 st14">300</text>
<line class="st4" x1="155.4" y1="308.2" x2="147.8" y2="308.2"/>
<text transform="matrix(1 0 0 1 113.663 314.7652)" class="st5 st14">350</text>
<path class="st4" d="M1373.6,687.5h7.6V295h-7.6"/>
<line class="st4" x1="1381.2" y1="687.5" x2="1373.6" y2="687.5"/>
<text transform="matrix(1 0 0 1 1353.6084 694.1127)" class="st5 st14">0</text>
<line class="st4" x1="1381.2" y1="631.5" x2="1373.6" y2="631.5"/>
<text transform="matrix(1 0 0 1 1346.5664 638.0405)" class="st5 st14">50</text>
<line class="st4" x1="1381.2" y1="575.4" x2="1373.6" y2="575.4"/>
<text transform="matrix(1 0 0 1 1339.5254 581.9682)" class="st5 st14">100</text>
<line class="st4" x1="1381.2" y1="519.3" x2="1373.6" y2="519.3"/>
<text transform="matrix(1 0 0 1 1339.5254 525.895)" class="st5 st14">150</text>
<line class="st4" x1="1381.2" y1="463.2" x2="1373.6" y2="463.2"/>
<text transform="matrix(1 0 0 1 1339.5254 469.8217)" class="st5 st14">200</text>
<line class="st4" x1="1381.2" y1="407.2" x2="1373.6" y2="407.2"/>
<text transform="matrix(1 0 0 1 1339.5254 413.7495)" class="st5 st14">250</text>
<line class="st4" x1="1381.2" y1="351.1" x2="1373.6" y2="351.1"/>
<text transform="matrix(1 0 0 1 1339.5254 357.6767)" class="st5 st14">300</text>
<line class="st4" x1="1381.2" y1="295" x2="1373.6" y2="295"/>
<text transform="matrix(1 0 0 1 1339.5254 301.6035)" class="st5 st14">350</text>
</svg>
