<?xml version="1.0" encoding="utf-8"?>
<!-- Generator: Adobe Illustrator 27.9.0, SVG Export Plug-In . SVG Version: 6.00 Build 0)  -->
<svg version="1.1" id="Layer_1" xmlns="http://www.w3.org/2000/svg" xmlns:xlink="http://www.w3.org/1999/xlink" x="0px" y="0px"
	 viewBox="0 0 1112.8 874.4" style="enable-background:new 0 0 1112.8 874.4;" xml:space="preserve">
<style type="text/css">
	.st0{fill:#67000D;}
	.st1{fill:#FC9D7F;}
	.st2{fill:#FDC9B4;}
	.st3{fill:#FEE4D8;}
	.st4{fill:#FC8566;}
	.st5{fill:none;stroke:#000000;}
	.st6{font-family:'Arial-BoldMT';}
	.st7{font-size:24px;}
	.st8{fill:#F4523B;}
	.st9{fill:#FEDFD1;}
	.st10{fill:#FFF5F0;}
	.st11{font-family:'Helvetica';}
	.st12{font-size:16px;}
	.st13{font-size:20px;}
	.st14{fill:none;}
	.st15{font-family:'MyriadPro-Regular';}
</style>
<g>
	<rect id="_x32_017_-_Bronx" x="654" y="164.2" class="st0" width="73.4" height="566.9"/>
	<rect id="_x32_017_-_Brooklyn" x="728.5" y="374.7" class="st1" width="73.4" height="356.4"/>
	<rect id="_x32_017_-_Manhattan" x="803" y="418.8" class="st2" width="73.4" height="312.3"/>
	<rect id="_x32_017_-_Queens" x="877.5" y="452.8" class="st3" width="73.4" height="278.4"/>
	<rect id="_x32_017_-_Staten_Island" x="952.1" y="350.9" class="st4" width="73.4" height="380.2"/>
</g>
<path class="st5" d="M652.9,731.1h373.7"/>
<path class="st5" d="M646.3,731.1h6.5v-611h-6.5"/>
<text transform="matrix(1 0 0 1 595.9001 87.7316)" class="st6 st7">2017</text>
<rect id="_x32_014_-_Bronx" x="163.7" y="310.8" class="st8" width="73.4" height="427.7"/>
<rect id="_x32_014_-_Brooklyn" x="238.2" y="382.1" class="st1" width="73.4" height="356.4"/>
<rect id="_x32_014_-_Manhattan" x="312.7" y="453.4" class="st9" width="73.4" height="285.2"/>
<rect id="_x32_014_-_Queens" x="387.3" y="490.7" class="st10" width="73.4" height="247.8"/>
<rect id="_x32_014_-_Staten_Island" x="461.8" y="460.2" class="st3" width="73.4" height="278.4"/>
<path class="st5" d="M162.6,738.5h373.7"/>
<line class="st5" x1="200.4" y1="738.5" x2="200.4" y2="745.1"/>
<text transform="matrix(1 0 0 1 174.6251 757.0365)" class="st11 st12">Bronx</text>
<line class="st5" x1="274.9" y1="738.5" x2="274.9" y2="745.1"/>
<text transform="matrix(1 0 0 1 242.1768 757.0365)" class="st11 st12">Brooklyn</text>
<line class="st5" x1="349.4" y1="738.5" x2="349.4" y2="745.1"/>
<text transform="matrix(1 0 0 1 312.1485 757.0365)" class="st11 st12">Manhattan</text>
<line class="st5" x1="424" y1="738.5" x2="424" y2="745.1"/>
<text transform="matrix(1 0 0 1 393.3487 757.0365)" class="st11 st12">Queens</text>
<line class="st5" x1="498.5" y1="738.5" x2="498.5" y2="745.1"/>
<text transform="matrix(1 0 0 1 455.1358 757.0365)" class="st11 st12">Staten Island</text>
<path class="st5" d="M156,738.5h6.5v-611H156"/>
<line class="st5" x1="162.6" y1="738.5" x2="156" y2="738.5"/>
<text transform="matrix(1 0 0 1 132.077 742.7318)" class="st11 st13">0</text>
<line class="st5" x1="162.6" y1="670.7" x2="156" y2="670.7"/>
<text transform="matrix(1 0 0 1 132.077 674.8373)" class="st11 st13">2</text>
<line class="st5" x1="162.6" y1="602.8" x2="156" y2="602.8"/>
<text transform="matrix(1 0 0 1 132.077 606.9427)" class="st11 st13">4</text>
<line class="st5" x1="162.6" y1="534.9" x2="156" y2="534.9"/>
<text transform="matrix(1 0 0 1 132.077 539.0482)" class="st11 st13">6</text>
<line class="st5" x1="162.6" y1="467" x2="156" y2="467"/>
<text transform="matrix(1 0 0 1 132.077 471.1547)" class="st11 st13">8</text>
<line class="st5" x1="162.6" y1="399.1" x2="156" y2="399.1"/>
<text transform="matrix(1 0 0 1 126.0086 403.2602)" class="st11 st13">10</text>
<line class="st5" x1="162.6" y1="331.2" x2="156" y2="331.2"/>
<text transform="matrix(1 0 0 1 126.0086 335.3661)" class="st11 st13">12</text>
<line class="st5" x1="162.6" y1="263.3" x2="156" y2="263.3"/>
<text transform="matrix(1 0 0 1 126.0086 267.4716)" class="st11 st13">14</text>
<line class="st5" x1="162.6" y1="195.4" x2="156" y2="195.4"/>
<text transform="matrix(1 0 0 1 126.0086 199.5775)" class="st11 st13">16</text>
<line class="st5" x1="162.6" y1="127.5" x2="156" y2="127.5"/>
<text transform="matrix(1 0 0 1 126.0086 131.683)" class="st11 st13">18</text>
<text transform="matrix(1 0 0 1 76.2081 95.1311)" class="st6 st7">2014</text>
<rect x="10.2" y="17.7" class="st14" width="1102.6" height="26.5"/>
<text transform="matrix(1 0 0 1 10.2284 34.786)" class="st15 st7">Exposure to smoking in one’s environment remains higher in the Bronx borough of New York City</text>
<rect x="32.9" y="214" class="st14" width="29" height="446.4"/>
<text transform="matrix(6.123234e-17 -1 1 6.123234e-17 49.9213 660.4278)" class="st15 st7">Percentage of secondhand smoke in homes</text>
<rect x="295.4" y="789.4" class="st14" width="133.2" height="27.4"/>
<text transform="matrix(1 0 0 1 295.4205 806.4521)" class="st15 st7">Borough</text>
<path class="st5" d="M647.2,731.1h6.5v-611h-6.5"/>
<line class="st5" x1="653.7" y1="731.1" x2="647.2" y2="731.1"/>
<text transform="matrix(1 0 0 1 623.2037 735.3322)" class="st11 st13">0</text>
<line class="st5" x1="653.7" y1="663.3" x2="647.2" y2="663.3"/>
<text transform="matrix(1 0 0 1 623.2037 667.4377)" class="st11 st13">2</text>
<line class="st5" x1="653.7" y1="595.4" x2="647.2" y2="595.4"/>
<text transform="matrix(1 0 0 1 623.2037 599.5432)" class="st11 st13">4</text>
<line class="st5" x1="653.7" y1="527.5" x2="647.2" y2="527.5"/>
<text transform="matrix(1 0 0 1 623.2037 531.6486)" class="st11 st13">6</text>
<line class="st5" x1="653.7" y1="459.6" x2="647.2" y2="459.6"/>
<text transform="matrix(1 0 0 1 623.2037 463.7551)" class="st11 st13">8</text>
<line class="st5" x1="653.7" y1="391.7" x2="647.2" y2="391.7"/>
<text transform="matrix(1 0 0 1 617.1354 395.8606)" class="st11 st13">10</text>
<line class="st5" x1="653.7" y1="323.8" x2="647.2" y2="323.8"/>
<text transform="matrix(1 0 0 1 617.1354 327.9665)" class="st11 st13">12</text>
<line class="st5" x1="653.7" y1="255.9" x2="647.2" y2="255.9"/>
<text transform="matrix(1 0 0 1 617.1354 260.072)" class="st11 st13">14</text>
<line class="st5" x1="653.7" y1="188" x2="647.2" y2="188"/>
<text transform="matrix(1 0 0 1 617.1354 192.1779)" class="st11 st13">16</text>
<line class="st5" x1="653.7" y1="120.1" x2="647.2" y2="120.1"/>
<text transform="matrix(1 0 0 1 617.1354 124.2834)" class="st11 st13">18</text>
<line class="st5" x1="689.3" y1="730.6" x2="689.3" y2="737.2"/>
<text transform="matrix(1 0 0 1 663.5359 749.1136)" class="st11 st12">Bronx</text>
<line class="st5" x1="763.8" y1="730.6" x2="763.8" y2="737.2"/>
<text transform="matrix(1 0 0 1 731.0877 749.1136)" class="st11 st12">Brooklyn</text>
<line class="st5" x1="838.4" y1="730.6" x2="838.4" y2="737.2"/>
<text transform="matrix(1 0 0 1 801.0594 749.1136)" class="st11 st12">Manhattan</text>
<line class="st5" x1="912.9" y1="730.6" x2="912.9" y2="737.2"/>
<text transform="matrix(1 0 0 1 882.2596 749.1136)" class="st11 st12">Queens</text>
<line class="st5" x1="987.4" y1="730.6" x2="987.4" y2="737.2"/>
<text transform="matrix(1 0 0 1 944.0467 749.1136)" class="st11 st12">Staten Island</text>
</svg>
